<?xml version="1.0" standalone="no"?>
<svg viewBox="0 0 200 200" xmlns="http://www.w3.org/2000/svg">
  <path fill="#0F62FE" d="M39.1,-66C52.4,-60.1,66,-53.1,72.4,-41.9C78.8,-30.7,78,-15.3,75.8,-1.3C73.6,12.8,70,25.6,65.3,39.7C60.6,53.7,54.7,69.1,43.6,77.8C32.5,86.4,16.3,88.3,1.6,85.6C-13.1,82.9,-26.2,75.5,-40.4,68.6C-54.5,61.7,-69.6,55.3,-74.8,44C-80,32.6,-75.4,16.3,-71.4,2.3C-67.4,-11.7,-64,-23.4,-59.5,-36C-55,-48.6,-49.4,-62.2,-39.3,-69.9C-29.2,-77.6,-14.6,-79.5,-0.8,-78.1C12.9,-76.6,25.8,-71.9,39.1,-66Z" transform="translate(100 100)" />
</svg>
